<mxfile host="app.diagrams.net" agent="Mozilla/5.0 (Windows NT 10.0; Win64; x64) AppleWebKit/537.36 (KHTML, like Gecko) Chrome/130.0.0.0 Safari/537.36" version="24.8.3">
  <diagram name="Сторінка-1" id="NiCWR99BNMAtr44-BHBs">
    <mxGraphModel grid="1" page="1" gridSize="10" guides="1" tooltips="1" connect="1" arrows="1" fold="1" pageScale="1" pageWidth="827" pageHeight="1169" math="0" shadow="0">
      <root>
        <mxCell id="0" />
        <mxCell id="1" parent="0" />
        <mxCell id="WIBoyPJEdtDj1h0VfNzT-6" style="edgeStyle=orthogonalEdgeStyle;rounded=0;orthogonalLoop=1;jettySize=auto;html=1;entryX=0.5;entryY=0;entryDx=0;entryDy=0;" edge="1" parent="1" source="WIBoyPJEdtDj1h0VfNzT-1" target="WIBoyPJEdtDj1h0VfNzT-2">
          <mxGeometry relative="1" as="geometry" />
        </mxCell>
        <mxCell id="WIBoyPJEdtDj1h0VfNzT-1" value="Початок програми" style="ellipse;whiteSpace=wrap;html=1;" vertex="1" parent="1">
          <mxGeometry x="353" y="20" width="127" height="50" as="geometry" />
        </mxCell>
        <mxCell id="WIBoyPJEdtDj1h0VfNzT-7" style="edgeStyle=orthogonalEdgeStyle;rounded=0;orthogonalLoop=1;jettySize=auto;html=1;entryX=0.5;entryY=0;entryDx=0;entryDy=0;" edge="1" parent="1" source="WIBoyPJEdtDj1h0VfNzT-2" target="WIBoyPJEdtDj1h0VfNzT-3">
          <mxGeometry relative="1" as="geometry" />
        </mxCell>
        <mxCell id="WIBoyPJEdtDj1h0VfNzT-2" value="Запит про введення кількості операцій" style="shape=parallelogram;perimeter=parallelogramPerimeter;whiteSpace=wrap;html=1;fixedSize=1;" vertex="1" parent="1">
          <mxGeometry x="341.5" y="100" width="150" height="60" as="geometry" />
        </mxCell>
        <mxCell id="WIBoyPJEdtDj1h0VfNzT-3" value="Обрахування суми n разів" style="rounded=0;whiteSpace=wrap;html=1;" vertex="1" parent="1">
          <mxGeometry x="357" y="200" width="120" height="60" as="geometry" />
        </mxCell>
        <mxCell id="WIBoyPJEdtDj1h0VfNzT-11" style="edgeStyle=orthogonalEdgeStyle;rounded=0;orthogonalLoop=1;jettySize=auto;html=1;entryX=0.5;entryY=0;entryDx=0;entryDy=0;" edge="1" parent="1" source="WIBoyPJEdtDj1h0VfNzT-4" target="WIBoyPJEdtDj1h0VfNzT-5">
          <mxGeometry relative="1" as="geometry" />
        </mxCell>
        <mxCell id="WIBoyPJEdtDj1h0VfNzT-4" value="Виведення результату з точністю 0.0001" style="shape=parallelogram;perimeter=parallelogramPerimeter;whiteSpace=wrap;html=1;fixedSize=1;" vertex="1" parent="1">
          <mxGeometry x="353" y="290" width="120" height="60" as="geometry" />
        </mxCell>
        <mxCell id="WIBoyPJEdtDj1h0VfNzT-5" value="Завершення програми" style="ellipse;whiteSpace=wrap;html=1;" vertex="1" parent="1">
          <mxGeometry x="351.5" y="380" width="123" height="50" as="geometry" />
        </mxCell>
        <mxCell id="WIBoyPJEdtDj1h0VfNzT-10" style="edgeStyle=orthogonalEdgeStyle;rounded=0;orthogonalLoop=1;jettySize=auto;html=1;entryX=0.533;entryY=0.002;entryDx=0;entryDy=0;entryPerimeter=0;" edge="1" parent="1" source="WIBoyPJEdtDj1h0VfNzT-3" target="WIBoyPJEdtDj1h0VfNzT-4">
          <mxGeometry relative="1" as="geometry" />
        </mxCell>
      </root>
    </mxGraphModel>
  </diagram>
</mxfile>
